<?xml version="1.0" encoding="UTF-8"?>
<svg version="1.1" xmlns="http://www.w3.org/2000/svg" width="314" height="108">
<path d="M0 0 C4.62 0 9.24 0 14 0 C14 8.25 14 16.5 14 25 C14.99 24.67 15.98 24.34 17 24 C18.62567079 23.85284801 20.25586857 23.75278133 21.88671875 23.68359375 C22.73194092 23.64548584 23.57716309 23.60737793 24.44799805 23.56811523 C26.05155151 23.50346069 26.05155151 23.50346069 27.6875 23.4375 C31.090625 23.293125 34.49375 23.14875 38 23 C38 15.41 38 7.82 38 0 C42.95 0 47.9 0 53 0 C53 20.79 53 41.58 53 63 C48.05 63 43.1 63 38 63 C38 54.42 38 45.84 38 37 C36.02 37.495 36.02 37.495 34 38 C32.41432161 38.1421701 30.82481368 38.24504041 29.234375 38.31640625 C28.43225586 38.35451416 27.63013672 38.39262207 26.80371094 38.43188477 C25.79598633 38.47498779 24.78826172 38.51809082 23.75 38.5625 C20.5325 38.706875 17.315 38.85125 14 39 C14 46.92 14 54.84 14 63 C9.38 63 4.76 63 0 63 C0 42.21 0 21.42 0 0 Z " fill="#262626" transform="translate(97,23)"/>
<path d="M0 0 C3.125 2.1875 3.125 2.1875 4.125 5.1875 C5.053125 5.5278125 5.053125 5.5278125 6 5.875 C9.66052486 8.13591241 10.03023056 11.13685307 11.125 15.1875 C11.125 19.1475 11.125 23.1075 11.125 27.1875 C0.895 27.1875 -9.335 27.1875 -19.875 27.1875 C-20.875 20.1875 -20.875 20.1875 -19.875 17.1875 C-13.935 17.1875 -7.995 17.1875 -1.875 17.1875 C-3.2816469 12.30177144 -3.2816469 12.30177144 -5.9375 10.8125 C-10.13458135 9.91950397 -13.74882995 9.94144141 -17.875 11.1875 C-21.29383228 13.90861141 -22.5406086 15.34536167 -23.3125 19.59765625 C-23.52122666 23.92221167 -23.08879588 26.72701656 -21.25 30.6875 C-18.39099014 33.69698407 -16.97158042 34.5047366 -12.875 35.1875 C-6.58442795 35.16670472 -1.48278764 33.99139382 4.125 31.1875 C4.99449317 32.25857117 5.84514205 33.34495944 6.6875 34.4375 C7.40099609 35.34242187 7.40099609 35.34242187 8.12890625 36.265625 C9.125 38.1875 9.125 38.1875 8.91015625 40.3203125 C7.695237 43.20952346 5.91171176 43.85472481 3.125 45.1875 C-5.4089792 48.00454168 -15.39922391 49.00262025 -23.9375 45.625 C-30.1181199 42.30771813 -34.24655019 37.06418782 -36.40625 30.41796875 C-37.94976699 23.07340039 -37.71542904 14.78485146 -33.875 8.1875 C-25.17587839 -1.53406173 -12.5453597 -5.9425388 0 0 Z " fill="#2C2C2C" transform="translate(238.875,39.8125)"/>
<path d="M0 0 C0.09968761 4.67726589 0.17184934 9.35389875 0.21972656 14.03198242 C0.23970745 15.61965726 0.26690203 17.20725979 0.30175781 18.79467773 C0.67557014 36.27040424 0.67557014 36.27040424 -4 43 C-9.13486619 48.13486619 -14.18015573 49.30214664 -21.3125 49.375 C-29.36808566 49.33791347 -33.97055738 47.76601282 -39.875 42.375 C-44.92956543 34.34716079 -44.2852528 24.63140794 -44.1875 15.4375 C-44.18685547 14.25091797 -44.18621094 13.06433594 -44.18554688 11.84179688 C-44.14067 3.14067 -44.14067 3.14067 -43 2 C-40.81360547 1.92741054 -38.62499611 1.91626217 -36.4375 1.9375 C-34.64119141 1.95103516 -34.64119141 1.95103516 -32.80859375 1.96484375 C-31.88175781 1.97644531 -30.95492187 1.98804688 -30 2 C-29.98598145 3.3317627 -29.98598145 3.3317627 -29.97167969 4.69042969 C-29.92759319 7.99345919 -29.86595254 11.29520007 -29.79248047 14.59765625 C-29.76430389 16.02526937 -29.74307273 17.45303753 -29.72900391 18.88085938 C-29.70752608 20.93700332 -29.66086026 22.99129002 -29.609375 25.046875 C-29.58842773 26.28276367 -29.56748047 27.51865234 -29.54589844 28.79199219 C-28.90731402 32.5446752 -28.02661111 33.75720004 -25 36 C-21.58157468 36.49852036 -19.7341375 36.39683108 -16.6875 34.75 C-13.40220332 31.34302567 -13.82800091 27.0228857 -13.68359375 22.484375 C-13.64169922 21.23398437 -13.59980469 19.98359375 -13.55664062 18.6953125 C-13.51732422 17.39335938 -13.47800781 16.09140625 -13.4375 14.75 C-13.39431641 13.43257812 -13.35113281 12.11515625 -13.30664062 10.7578125 C-13.20058083 7.50531212 -13.09851976 4.25273608 -13 1 C-8.6062682 0.29700291 -4.44493976 -0.05036759 0 0 Z " fill="#292929" transform="translate(199,38)"/>
<path d="M0 0 C1.05682983 0.01099731 1.05682983 0.01099731 2.13500977 0.0222168 C7.22485093 0.21351995 10.75421443 1.18563935 14.83984375 4.17578125 C16.125 5.5625 16.125 5.5625 17.125 8.5625 C16.795 9.2225 16.465 9.8825 16.125 10.5625 C15.465 10.5625 14.805 10.5625 14.125 10.5625 C13.465 11.8825 12.805 13.2025 12.125 14.5625 C8.125 14.5625 8.125 14.5625 5.75 13 C2.42860677 11.1811418 0.71529045 11.64405361 -2.875 12.5625 C-2.875 14.2125 -2.875 15.8625 -2.875 17.5625 C-2.01261719 17.66949219 -1.15023438 17.77648437 -0.26171875 17.88671875 C3.31474218 18.6003609 6.05747193 19.74542321 9.3125 21.375 C10.33730469 21.87644531 11.36210937 22.37789062 12.41796875 22.89453125 C15.20056412 24.60905971 16.5890754 25.69681518 18.125 28.5625 C18.92296006 33.78877898 19.02712037 38.83042889 16.5625 43.5625 C15.758125 44.2225 14.95375 44.8825 14.125 45.5625 C13.2175 46.325625 12.31 47.08875 11.375 47.875 C5.32567963 51.05678539 -2.29964608 50.45674813 -8.875 49.5625 C-13.32977295 47.63991378 -16.47868077 44.95881923 -19.875 41.5625 C-19.60941476 37.71151402 -17.31456652 35.39554499 -14.875 32.5625 C-11.87124615 33.04310062 -10.26266343 33.95109821 -7.625 35.625 C-3.60536155 38.04027082 -0.48934569 37.88631373 4.125 37.5625 C4.24109373 35.15371701 4.24109373 35.15371701 3.125 32.5625 C0.48622086 31.18198617 -1.90956619 30.12388959 -4.6875 29.125 C-10.6029405 26.99544142 -13.8323169 25.42560471 -16.875 19.5625 C-18.43692191 14.29101356 -17.70198382 11.20585708 -15.37109375 6.45703125 C-11.21007272 1.18785318 -6.46842028 -0.13703956 0 0 Z " fill="#252525" transform="translate(269.875,37.4375)"/>
<path d="M0 0 C3.60825531 1.80412766 5.24493177 3.04913632 7.9375 5.875 C10.81258351 8.83574707 13.76659866 11.43229893 17 14 C19.42508208 17.63762312 19.37372105 20.45101399 19.44140625 24.66796875 C19.45517807 25.42161209 19.46894989 26.17525543 19.48313904 26.95173645 C19.50640494 28.54790931 19.52367353 30.14417918 19.53540039 31.74047852 C19.56222668 34.16281961 19.63709593 36.5807199 19.71289062 39.00195312 C19.93025239 52.00274563 19.93025239 52.00274563 15.58984375 57.11328125 C12.50643955 60 12.50643955 60 10 60 C10 60.66 10 61.32 10 62 C9.34 62 8.68 62 8 62 C7.7525 62.5775 7.505 63.155 7.25 63.75 C5.81700012 66.32939979 4.21575324 68.06121592 2 70 C1.34 70 0.68 70 0 70 C0 46.9 0 23.8 0 0 Z " fill="#213266" transform="translate(54,20)"/>
<path d="M0 0 C3.23585361 1.61792681 4.83246068 2.55804109 7.25 5 C8.03117187 5.7734375 8.03117187 5.7734375 8.828125 6.5625 C10 8 10 8 10 10 C10.556875 10.226875 11.11375 10.45375 11.6875 10.6875 C14.79905588 12.4535182 16.71716946 14.22164799 19 17 C19.53600953 19.90255282 19.77231637 22.21556561 19.76953125 25.1171875 C19.7814299 25.89256866 19.79332855 26.66794983 19.80558777 27.46682739 C19.82208638 29.10231759 19.82550948 30.73798574 19.81665039 32.37353516 C19.81252027 34.86278205 19.87756227 37.34389251 19.94726562 39.83203125 C20.07981327 51.39232951 20.07981327 51.39232951 17.29345703 55.54077148 C15.28289462 57.2775047 13.27364964 58.63586603 11 60 C9.12021697 62.04544736 7.3870716 64.14315669 5.640625 66.30078125 C4 68 4 68 0 70 C0 46.9 0 23.8 0 0 Z " fill="#DA5341" transform="translate(15,20)"/>
<path d="M0 0 C3.60825531 1.80412766 5.24493177 3.04913632 7.9375 5.875 C10.81258351 8.83574707 13.76659866 11.43229893 17 14 C19.42508208 17.63762312 19.37372105 20.45101399 19.44140625 24.66796875 C19.45517807 25.42161209 19.46894989 26.17525543 19.48313904 26.95173645 C19.50640494 28.54790931 19.52367353 30.14417918 19.53540039 31.74047852 C19.56222668 34.16281961 19.63709593 36.5807199 19.71289062 39.00195312 C19.93025239 52.00274563 19.93025239 52.00274563 15.58984375 57.11328125 C12.50643955 60 12.50643955 60 10 60 C10 60.66 10 61.32 10 62 C9.34 62 8.68 62 8 62 C7.7525 62.5775 7.505 63.155 7.25 63.75 C5.81700012 66.32939979 4.21575324 68.06121592 2 70 C1.34 70 0.68 70 0 70 C0 46.9 0 23.8 0 0 Z M1 2 C1 23.78 1 45.56 1 68 C7.87873219 62.88929729 7.87873219 62.88929729 10 58 C10.24355818 54.62414252 10.24355818 54.62414252 10.125 50.85546875 C10.11742676 50.16745682 10.10985352 49.47944489 10.10205078 48.77058411 C10.06952119 45.84016211 10.01343124 42.91030845 9.95898438 39.98022461 C9.92254708 37.83449954 9.89852271 35.68886832 9.875 33.54296875 C9.85179687 32.26446045 9.82859375 30.98595215 9.8046875 29.66870117 C10.00919185 25.82734262 10.82754481 22.65198695 12 19 C12.35371498 17.33753959 12.69595322 15.67225729 13 14 C12.34 13.67 11.68 13.34 11 13 C10.608125 12.278125 10.21625 11.55625 9.8125 10.8125 C7.59103121 7.07130444 7.59103121 7.07130444 1 2 Z " fill="#8DA5CC" transform="translate(54,20)"/>
<path d="M0 0 C1.32 0.33 2.64 0.66 4 1 C3.01 1.495 3.01 1.495 2 2 C3.134375 2.45375 4.26875 2.9075 5.4375 3.375 C9 5 9 5 10 7 C10.30669795 11.77946614 10.35637941 16.55932832 10.4050293 21.34765625 C10.42658262 22.94227796 10.46065489 24.53678219 10.50756836 26.13085938 C10.57478311 28.43673192 10.60205963 30.74015932 10.62109375 33.046875 C10.64892441 33.75334167 10.67675507 34.45980835 10.70542908 35.18768311 C10.68840931 39.32098531 9.91581707 41.54974412 7.10717773 44.44677734 C4.69974554 46.63193771 2.96434875 47.75985004 -0.375 47.875 C-2.169375 47.936875 -2.169375 47.936875 -4 48 C-4.33 50.31 -4.66 52.62 -5 55 C-5.33 55 -5.66 55 -6 55 C-6.31811634 47.82470921 -6.34043154 42.41362856 -3 36 C-2.62691369 34.67723944 -2.26953585 33.34767923 -2 32 C-1.01 32 -0.02 32 1 32 C0.67 21.44 0.34 10.88 0 0 Z " fill="#9F273B" transform="translate(23,31)"/>
<path d="M0 0 C3.41672843 1.41381866 5.14573818 2.78592451 7 6 C7.31626251 8.70202182 7.46800363 11.1687749 7.46875 13.87109375 C7.47636353 14.63043716 7.48397705 15.38978058 7.49182129 16.1721344 C7.50260565 17.77496052 7.50548213 19.37785682 7.50097656 20.98071289 C7.50000438 23.42649097 7.54163367 25.86912802 7.5859375 28.31445312 C7.59114514 29.87499348 7.59383268 31.4355447 7.59375 32.99609375 C7.6183429 34.0869352 7.6183429 34.0869352 7.64343262 35.19981384 C7.58833663 39.27002969 7.13231108 40.84353629 4.46289062 44.00024414 C3.24375977 44.99012329 3.24375977 44.99012329 2 46 C2.226875 45.175 2.45375 44.35 2.6875 43.5 C3.04171898 39.53274739 2.25341332 37.52081763 0.76953125 33.9296875 C-2.14825996 26.61299279 -1.93809687 18.16161112 1 11 C1.49792877 5.33243377 1.49792877 5.33243377 0 0 Z " fill="#326CBA" transform="translate(66,31)"/>
<path d="M0 0 C3.03785403 2.02523602 4.58738094 3.63144686 6 7 C6.33 7.66 6.66 8.32 7 9 C6.6953125 11.12890625 6.6953125 11.12890625 6.125 13.5625 C5.94195312 14.36816406 5.75890625 15.17382812 5.5703125 16.00390625 C5 18 5 18 4 19 C3.91216458 21.21855264 3.89305391 23.43988496 3.90234375 25.66015625 C3.9037587 26.32462265 3.90517365 26.98908905 3.90663147 27.6736908 C3.91224482 29.80333899 3.92479946 31.93288339 3.9375 34.0625 C3.94251329 35.50325369 3.94707649 36.94400903 3.95117188 38.38476562 C3.96221855 41.92321102 3.97949208 45.46159539 4 49 C3.34 48.67 2.68 48.34 2 48 C1.65977214 46.00116131 1.32670903 44.00109278 1 42 C0.34 41.34 -0.32 40.68 -1 40 C-3.17271496 29.5258741 -2.13356956 18.5996016 -0.4375 8.1640625 C-0.05325045 5.38511487 0.08384793 2.79842462 0 0 Z " fill="#1E4890" transform="translate(60,27)"/>
<path d="M0 0 C2.02045442 0.60183749 4.02111039 1.27306096 6 2 C8.28908956 6.57817913 7.3533882 13.26492014 7.4050293 18.34765625 C7.42658262 19.94227796 7.46065489 21.53678219 7.50756836 23.13085938 C7.57478311 25.43673192 7.60205963 27.74015932 7.62109375 30.046875 C7.64892441 30.75334167 7.67675507 31.45980835 7.70542908 32.18768311 C7.68849484 36.30021282 6.9101654 38.57743521 4.14868164 41.49707031 C1.79018435 43.71237961 1.38556738 44 -2 44 C-1.54279863 38.87934467 -0.68248633 34.61161692 1.28125 29.859375 C4.51618056 21.4907503 3.78889914 10.26146805 0.9375 1.875 C0.628125 1.25625 0.31875 0.6375 0 0 Z " fill="#8D1D3C" transform="translate(26,34)"/>
<path d="M0 0 C1.98 0.99 1.98 0.99 4 2 C3.01 2.495 3.01 2.495 2 3 C2 22.47 2 41.94 2 62 C2.66 60.68 3.32 59.36 4 58 C7.8125 57.5625 7.8125 57.5625 9.83203125 57.56640625 C13.33521563 56.65115988 14.76010826 54.79381399 17 52 C17.43857267 49.00808557 17.58901776 46.60985115 17.48828125 43.63671875 C17.48120651 42.84473587 17.47413177 42.05275299 17.46684265 41.23677063 C17.43896244 38.71936611 17.376242 36.20422644 17.3125 33.6875 C17.28740861 31.9759437 17.26459691 30.26435235 17.24414062 28.55273438 C17.18915747 24.36762346 17.10293418 20.18419504 17 16 C17.66 16.33 18.32 16.66 19 17 C19.19870375 21.99854577 19.3433522 26.99476527 19.43945312 31.99633789 C19.47953163 33.69498764 19.53401432 35.393364 19.60351562 37.09106445 C20.16734507 51.22411287 20.16734507 51.22411287 17.31542969 55.56274414 C15.29779145 57.30124311 13.2878639 58.6474457 11 60 C9.12021697 62.04544736 7.3870716 64.14315669 5.640625 66.30078125 C4 68 4 68 0 70 C0 46.9 0 23.8 0 0 Z " fill="#D9B5B7" transform="translate(15,20)"/>
<path d="M0 0 C0.66 0 1.32 0 2 0 C2 0.66 2 1.32 2 2 C2.87398437 2.38285156 2.87398437 2.38285156 3.765625 2.7734375 C6.21388223 4.11741087 7.81743248 5.61810296 9.75 7.625 C10.36359375 8.25664063 10.9771875 8.88828125 11.609375 9.5390625 C12.29773438 10.26222656 12.29773438 10.26222656 13 11 C12.62488281 11.43570313 12.24976563 11.87140625 11.86328125 12.3203125 C11.35152344 12.91585937 10.83976562 13.51140625 10.3125 14.125 C9.76722656 14.75792969 9.22195312 15.39085937 8.66015625 16.04296875 C7.1557467 17.81640213 5.70207646 19.62132079 4.25 21.4375 C3.5075 22.283125 2.765 23.12875 2 24 C1.34 24 0.68 24 0 24 C0 16.08 0 8.16 0 0 Z " fill="#5D2954" transform="translate(38,43)"/>
<path d="M0 0 C0.99 0.33 1.98 0.66 3 1 C5.14982548 10.0599788 5.20871753 18.75845174 5 28 C4.01 28 3.02 28 2 28 C1.87625 29.258125 1.7525 30.51625 1.625 31.8125 C1.30131941 35.10325263 0.93395001 36.09907498 -1 39 C-1.45139459 41.0492094 -1.45139459 41.0492094 -1.625 43.1875 C-1.74875 44.445625 -1.8725 45.70375 -2 47 C-2.33 47 -2.66 47 -3 47 C-3 40.73 -3 34.46 -3 28 C-2.34 28 -1.68 28 -1 28 C-1 27.34 -1 26.68 -1 26 C-0.34 26 0.32 26 1 26 C1.02899599 22.22918278 1.04679729 18.45839417 1.0625 14.6875 C1.07087891 13.61564453 1.07925781 12.54378906 1.08789062 11.43945312 C1.09272461 9.89741211 1.09272461 9.89741211 1.09765625 8.32421875 C1.10289307 7.37635498 1.10812988 6.42849121 1.11352539 5.4519043 C1.10498854 2.86161319 1.10498854 2.86161319 0 0 Z " fill="#E2533F" transform="translate(19,35)"/>
<path d="M0 0 C0.33 0 0.66 0 1 0 C1.33 3.3 1.66 6.6 2 10 C2.66 9.34 3.32 8.68 4 8 C4.16918268 9.58306647 4.33523936 11.16646719 4.5 12.75 C4.5928125 13.63171875 4.685625 14.5134375 4.78125 15.421875 C5.13704542 19.61517815 5.20496709 22.40242212 3 26 C1.5 27.75 1.5 27.75 0 29 C-0.66 29 -1.32 29 -2 29 C-2.0580772 24.91672643 -2.09362249 20.83355917 -2.125 16.75 C-2.14175781 15.59113281 -2.15851562 14.43226562 -2.17578125 13.23828125 C-2.18222656 12.12324219 -2.18867187 11.00820312 -2.1953125 9.859375 C-2.20578613 8.83295898 -2.21625977 7.80654297 -2.22705078 6.74902344 C-1.99836111 3.98015712 -1.4243299 2.35581208 0 0 Z " fill="#162863" transform="translate(58,57)"/>
<path d="M0 0 C0.66 0 1.32 0 2 0 C4.46080465 10.61718135 4.1553728 23.59149131 -1.27734375 33.27734375 C-2.1447058 34.58718614 -3.02651056 35.88763675 -3.92578125 37.17578125 C-5.62809713 40.06662312 -5.79279221 42.68467543 -6 46 C-6.33 46 -6.66 46 -7 46 C-7.31811634 38.82470921 -7.34043154 33.41362856 -4 27 C-3.62691369 25.67723944 -3.26953585 24.34767923 -3 23 C-2.01 23 -1.02 23 0 23 C0 15.41 0 7.82 0 0 Z " fill="#B8343C" transform="translate(24,40)"/>
<path d="M0 0 C1.9375 1.125 1.9375 1.125 4 3 C4.75 6.1875 4.75 6.1875 5 9 C4.34 9 3.68 9 3 9 C3.061875 10.11375 3.061875 10.11375 3.125 11.25 C3 14 3 14 2.00439453 15.81933594 C0.73874189 18.5672235 0.77257701 20.62223885 0.8046875 23.640625 C0.81113281 24.71054687 0.81757812 25.78046875 0.82421875 26.8828125 C0.84097656 27.99398437 0.85773437 29.10515625 0.875 30.25 C0.88402344 31.37664063 0.89304688 32.50328125 0.90234375 33.6640625 C0.92589342 36.44292365 0.9587832 39.2213539 1 42 C-3.06643589 37.93356411 -2.06500223 30.26239974 -2.1875 24.75 C-2.14751156 19.13562265 -1.33696632 13.6982789 -0.4375 8.1640625 C-0.05325045 5.38511487 0.08384793 2.79842462 0 0 Z " fill="#193B7D" transform="translate(60,27)"/>
<path d="M0 0 C3.41672843 1.41381866 5.14573818 2.78592451 7 6 C7.31626251 8.70202182 7.46800363 11.1687749 7.46875 13.87109375 C7.47636353 14.63043716 7.48397705 15.38978058 7.49182129 16.1721344 C7.50260565 17.77496052 7.50548213 19.37785682 7.50097656 20.98071289 C7.50000438 23.42649097 7.54163367 25.86912802 7.5859375 28.31445312 C7.59114514 29.87499348 7.59383268 31.4355447 7.59375 32.99609375 C7.61014526 33.72332138 7.62654053 34.45054901 7.64343262 35.19981384 C7.58833663 39.27002969 7.13231108 40.84353629 4.46289062 44.00024414 C3.24375977 44.99012329 3.24375977 44.99012329 2 46 C2.32145996 45.4834082 2.64291992 44.96681641 2.97412109 44.43457031 C4.32382656 41.23150917 4.32578483 38.51912989 4.4140625 35.046875 C4.43342865 34.38665344 4.4527948 33.72643188 4.4727478 33.04620361 C4.53229349 30.94759847 4.57882722 28.84893772 4.625 26.75 C4.66320294 25.3228934 4.70225602 23.89580928 4.7421875 22.46875 C4.8379733 18.97937309 4.92209642 15.48982714 5 12 C4.34 12 3.68 12 3 12 C3.061875 10.7625 3.12375 9.525 3.1875 8.25 C3.20362826 5.21788698 3.10651023 4.17751704 1.5 1.5 C1.005 1.005 0.51 0.51 0 0 Z " fill="#B7CCE7" transform="translate(66,31)"/>
<path d="M0 0 C3.91841827 1.30613942 6.32640809 2.83129848 9 6 C9 6.66 9 7.32 9 8 C9.598125 8.2475 10.19625 8.495 10.8125 8.75 C13.28647521 10.16370012 14.43370255 11.65055383 16 14 C14.68 14 13.36 14 12 14 C12 13.34 12 12.68 12 12 C11.01 12.33 10.02 12.66 9 13 C9 12.01 9 11.02 9 10 C7.90493508 13.28519475 7.90039392 15.73663415 7.9375 19.1875 C7.94652344 20.27417969 7.95554687 21.36085938 7.96484375 22.48046875 C7.97644531 23.31191406 7.98804688 24.14335938 8 25 C7.67 25 7.34 25 7 25 C6.87882812 24.22914062 6.75765625 23.45828125 6.6328125 22.6640625 C6.46523438 21.66117188 6.29765625 20.65828125 6.125 19.625 C5.88136719 18.12839844 5.88136719 18.12839844 5.6328125 16.6015625 C5.2041198 13.8574885 5.2041198 13.8574885 3 12 C2.40234375 9.94140625 2.40234375 9.94140625 1.9375 7.5625 C1.41445483 4.93862879 0.84906993 2.54720979 0 0 Z " fill="#C53A3C" transform="translate(16,22)"/>
<path d="M0 0 C2.97 0 5.94 0 9 0 C10.35439668 2.70879335 10.06501451 5.00933268 10 8 C9.34 8 8.68 8 8 8 C8 8.66 8 9.32 8 10 C5.66705225 10.04241723 3.33297433 10.04092937 1 10 C0 9 0 9 -0.09765625 6.93359375 C-0.06510417 4.62239583 -0.03255208 2.31119792 0 0 Z " fill="#4B4B4B" transform="translate(289,77)"/>
<path d="M0 0 C0.66 0.33 1.32 0.66 2 1 C2.14890487 5.73212042 2.25747049 10.46286279 2.32958984 15.19677734 C2.35966691 16.80509204 2.40054123 18.41324398 2.45263672 20.02099609 C2.52586612 22.33992711 2.55954284 24.65668178 2.5859375 26.9765625 C2.61690521 27.68930328 2.64787292 28.40204407 2.67977905 29.13638306 C2.68256043 33.31134969 1.91552006 35.56345962 -0.91162109 38.50146484 C-4 41 -4 41 -6 41 C-5.505 38.03 -5.505 38.03 -5 35 C-4.34 35 -3.68 35 -3 35 C-2.67 34.34 -2.34 33.68 -2 33 C-1.505 32.505 -1.505 32.505 -1 32 C0.16315127 25.16750301 0.11626804 18.41539761 0.0625 11.5 C0.05798828 10.39140625 0.05347656 9.2828125 0.04882812 8.140625 C0.03713158 5.42702601 0.02074086 2.71354239 0 0 Z " fill="#7A1F3E" transform="translate(31,37)"/>
<path d="M0 0 C0.66 0 1.32 0 2 0 C2 6.93 2 13.86 2 21 C-1.95950216 17.04049784 -2.1542053 15.57201356 -2.1875 10.125 C-2.20167969 9.07570313 -2.21585937 8.02640625 -2.23046875 6.9453125 C-2.00504937 4.06452929 -1.48964317 2.43759792 0 0 Z " fill="#4B87D4" transform="translate(69,43)"/>
<path d="M0 0 C2.6618038 5.32360759 3.15597292 9.22410507 3.125 15.0625 C3.12886719 15.79533203 3.13273437 16.52816406 3.13671875 17.28320312 C3.12668491 22.74663018 3.12668491 22.74663018 2 25 C1.34 25 0.68 25 0 25 C0 16.75 0 8.5 0 0 Z " fill="#F9784D" transform="translate(16,38)"/>
<path d="M0 0 C0.99 0.33 1.98 0.66 3 1 C5.14982548 10.0599788 5.20871753 18.75845174 5 28 C4.01 28 3.02 28 2 28 C2.01160156 26.94941406 2.02320313 25.89882813 2.03515625 24.81640625 C2.37379234 12.24261533 2.37379234 12.24261533 0 0 Z " fill="#D1453D" transform="translate(19,35)"/>
<path d="M0 0 C0.74507813 0.00902344 1.49015625 0.01804688 2.2578125 0.02734375 C4.08868059 0.05081642 5.91938238 0.08668475 7.75 0.125 C7.75 0.455 7.75 0.785 7.75 1.125 C6.84378906 1.11597656 5.93757813 1.10695312 5.00390625 1.09765625 C-3.89206921 1.31417205 -8.95444523 2.74617069 -15.25 9.125 C-15.58 8.465 -15.91 7.805 -16.25 7.125 C-11.39355933 0.53411623 -8.030343 -0.18444251 0 0 Z " fill="#828282" transform="translate(270.25,37.875)"/>
<path d="M0 0 C0.66 0 1.32 0 2 0 C1.67 5.94 1.34 11.88 1 18 C2.65 18 4.3 18 6 18 C6 20 6 20 4.125 22.125 C2 24 2 24 0 24 C0 16.08 0 8.16 0 0 Z " fill="#C2ACB8" transform="translate(38,43)"/>
<path d="M0 0 C2.70023726 2.3627076 3.91427639 4.20399504 4.30078125 7.79296875 C4.31995344 12.93750573 4.1198913 17.96048915 3 23 C2.67 23 2.34 23 2 23 C1.93941406 21.92621094 1.87882812 20.85242188 1.81640625 19.74609375 C1.73192349 18.30988685 1.64727946 16.87368942 1.5625 15.4375 C1.52318359 14.73302734 1.48386719 14.02855469 1.44335938 13.30273438 C1.17481721 8.8201459 0.69383803 4.43706503 0 0 Z " fill="#EC5E41" transform="translate(17,38)"/>
<path d="M0 0 C3.21524305 1.40844718 5.32183868 3.10344786 7.75 5.625 C8.67039062 6.57246094 8.67039062 6.57246094 9.609375 7.5390625 C10.29773438 8.26222656 10.29773438 8.26222656 11 9 C9.68 10.32 8.36 11.64 7 13 C5.23537317 9.91190305 5 8.76687864 5 5 C3.68 4.67 2.36 4.34 1 4 C0.67 2.68 0.34 1.36 0 0 Z " fill="#9987A3" transform="translate(40,45)"/>
<path d="M0 0 C0.6875 1.5625 0.6875 1.5625 1 4 C0.28288618 5.6949963 -0.44073659 7.38837703 -1.23046875 9.05078125 C-2.51378886 12.30142458 -2.69587056 15.53292436 -3 19 C-3.33 19 -3.66 19 -4 19 C-4.02715383 17.25008666 -4.04646551 15.50005055 -4.0625 13.75 C-4.07410156 12.77546875 -4.08570313 11.8009375 -4.09765625 10.796875 C-4.0111252 8.31862574 -3.84745178 6.32383005 -3 4 C-2.34 3.67 -1.68 3.34 -1 3 C-0.67 2.01 -0.34 1.02 0 0 Z " fill="#D14941" transform="translate(20,63)"/>
<path d="M0 0 C3.93673644 1.31224548 6.22719294 2.91910327 9 6 C8.67 6.66 8.34 7.32 8 8 C7.01 7.67 6.02 7.34 5 7 C4.34 7.66 3.68 8.32 3 9 C2.01 6.03 1.02 3.06 0 0 Z " fill="#CE7C78" transform="translate(16,22)"/>
<path d="M0 0 C1.98 0.99 1.98 0.99 4 2 C4 4.97 4 7.94 4 11 C3.01 11.33 2.02 11.66 1 12 C1.33 9.36 1.66 6.72 2 4 C1.34 3.67 0.68 3.34 0 3 C0 2.01 0 1.02 0 0 Z " fill="#315C9C" transform="translate(64,31)"/>
<path d="M0 0 C0.33 0 0.66 0 1 0 C1 3.3 1 6.6 1 10 C1.66 10 2.32 10 3 10 C2.67 11.32 2.34 12.64 2 14 C1.34 14 0.68 14 0 14 C0 14.66 0 15.32 0 16 C-0.66 15.67 -1.32 15.34 -2 15 C-2 14.01 -2 13.02 -2 12 C-1.34 12 -0.68 12 0 12 C0 8.04 0 4.08 0 0 Z " fill="#556D9E" transform="translate(64,66)"/>
<path d="M0 0 C0.33 0.99 0.66 1.98 1 3 C2.32 2.67 3.64 2.34 5 2 C3.38405168 4.04119788 1.7143618 6.04072937 0 8 C-0.66 8 -1.32 8 -2 8 C-2 5.69 -2 3.38 -2 1 C-1.34 0.67 -0.68 0.34 0 0 Z " fill="#C58484" transform="translate(18,81)"/>
<path d="M0 0 C1.9375 0.375 1.9375 0.375 4 1 C4.33 1.66 4.66 2.32 5 3 C4.46375 3.061875 3.9275 3.12375 3.375 3.1875 C-0.11156962 4.38027382 -2.24940393 6.56197166 -5 9 C-4.42647107 5.12867972 -2.51295648 2.91827204 0 0 Z " fill="#A1A1A1" transform="translate(255,70)"/>
<path d="M0 0 C0.99 0.33 1.98 0.66 3 1 C3.1875 4.375 3.1875 4.375 3 8 C2.01 8.66 1.02 9.32 0 10 C0 6.7 0 3.4 0 0 Z " fill="#555484" transform="translate(44,51)"/>
<path d="M0 0 C0.33 0 0.66 0 1 0 C1 3.3 1 6.6 1 10 C1.66 10 2.32 10 3 10 C3 11.65 3 13.3 3 15 C1.51171875 13.88671875 1.51171875 13.88671875 0 12 C-0.29296875 9.08203125 -0.29296875 9.08203125 -0.1875 5.8125 C-0.16042969 4.72582031 -0.13335937 3.63914063 -0.10546875 2.51953125 C-0.07066406 1.68808594 -0.03585938 0.85664062 0 0 Z " fill="#4785D2" transform="translate(68,49)"/>
<path d="M0 0 C0.99 0 1.98 0 3 0 C3.33 0.99 3.66 1.98 4 3 C2.625 4.5 2.625 4.5 1 6 C0.34 6 -0.32 6 -1 6 C-0.67 4.02 -0.34 2.04 0 0 Z " fill="#7F223E" transform="translate(26,72)"/>
<path d="M0 0 C1.32 0 2.64 0 4 0 C3.67 1.32 3.34 2.64 3 4 C2.34 4 1.68 4 1 4 C0.67 5.32 0.34 6.64 0 8 C0 5.36 0 2.72 0 0 Z " fill="#E65D45" transform="translate(16,63)"/>
<path d="M0 0 C1.65 1.65 3.3 3.3 5 5 C3.68 5.99 2.36 6.98 1 8 C0.67 5.36 0.34 2.72 0 0 Z " fill="#A6AFC6" transform="translate(46,50)"/>
<path d="M0 0 C3.36720387 1.39332574 4.9859524 2.9789286 7 6 C5.68 6 4.36 6 3 6 C3 5.34 3 4.68 3 4 C2.01 4.33 1.02 4.66 0 5 C0 3.33333333 0 1.66666667 0 0 Z " fill="#C68D9B" transform="translate(25,30)"/>
<path d="M0 0 C2 1.375 2 1.375 4 3 C4 3.66 4 4.32 4 5 C3.34 5 2.68 5 2 5 C1.67 5.99 1.34 6.98 1 8 C0.17361624 5.10765685 0 3.11257569 0 0 Z " fill="#264073" transform="translate(60,27)"/>
<path d="M0 0 C1.32 0.66 2.64 1.32 4 2 C3.34 3.32 2.68 4.64 2 6 C1.01 5.34 0.02 4.68 -1 4 C-0.67 2.68 -0.34 1.36 0 0 Z " fill="#B3363E" transform="translate(21,28)"/>
</svg>
